<svg xmlns="http://www.w3.org/2000/svg" xmlns:xlink="http://www.w3.org/1999/xlink" viewBox="0 0 218.97 36.13"><defs><style>.cls-1{fill:#fff;}.cls-2{fill:url(#linear-gradient);}</style><linearGradient id="linear-gradient" x1="36.72" y1="28.88" x2="59.58" y2="6.02" gradientUnits="userSpaceOnUse"><stop offset="0.08" stop-color="#9945ff"/><stop offset="0.3" stop-color="#8752f3"/><stop offset="0.5" stop-color="#5497d5"/><stop offset="0.6" stop-color="#43b4ca"/><stop offset="0.72" stop-color="#28e0b9"/><stop offset="0.97" stop-color="#19fb9b"/></linearGradient></defs><g id="Artwork"><path class="cls-1" d="M14.3,36.13a25.41,25.41,0,0,1-5.47-.58A14,14,0,0,1,4.25,33.7a9.38,9.38,0,0,1-3.12-3.21A9.33,9.33,0,0,1,0,25.76v-.51a1.35,1.35,0,0,1,.05-.4h7.1a1.25,1.25,0,0,0-.05.38v.43a4,4,0,0,0,.84,2.59,5,5,0,0,0,2.48,1.59,12.34,12.34,0,0,0,3.79.53,16.42,16.42,0,0,0,2.47-.17,9.61,9.61,0,0,0,1.92-.48A5.19,5.19,0,0,0,20,29a2.69,2.69,0,0,0,.82-1,3.21,3.21,0,0,0,.26-1.3,2.81,2.81,0,0,0-.84-2.11,6.76,6.76,0,0,0-2.3-1.39,28.37,28.37,0,0,0-3.29-1.06l-3.74-1a32.32,32.32,0,0,1-3.75-1.25,15.67,15.67,0,0,1-3.26-1.8,7.92,7.92,0,0,1-2.31-2.69,8.4,8.4,0,0,1-.86-3.94,8.22,8.22,0,0,1,1-4.22A8.41,8.41,0,0,1,4.66,4.3,13.93,13.93,0,0,1,9,2.6a24,24,0,0,1,5.32-.55,22.5,22.5,0,0,1,5.09.55,13,13,0,0,1,4.23,1.75,8.84,8.84,0,0,1,2.85,3,8.63,8.63,0,0,1,1,4.32v.58h-7v-.38a3.32,3.32,0,0,0-.76-2.21,5.19,5.19,0,0,0-2.16-1.44,9.26,9.26,0,0,0-3.27-.53,13.54,13.54,0,0,0-3.43.38A4.9,4.9,0,0,0,8.76,9.22,2.38,2.38,0,0,0,8,11a2.43,2.43,0,0,0,.84,1.9,7.28,7.28,0,0,0,2.3,1.3,28.93,28.93,0,0,0,3.29,1c1.21.29,2.46.61,3.74,1a36.63,36.63,0,0,1,3.75,1.25,14,14,0,0,1,3.26,1.8,8.16,8.16,0,0,1,2.3,2.66,7.77,7.77,0,0,1,.87,3.79,9.53,9.53,0,0,1-1.83,6.1,10.27,10.27,0,0,1-5,3.36A23,23,0,0,1,14.3,36.13Z"/><polygon class="cls-1" points="73.34 29.45 73.34 2.62 68.88 2.62 66.19 12.66 66.19 35.55 89.95 35.55 89.95 29.45 73.34 29.45"/><path class="cls-1" d="M92.93,35.55V2.62h26.3V8.48h-19.1v7.34H117v5.81H100.13v8h19.39v5.9Z"/><path class="cls-1" d="M148.08,35.55h7.73L143.13,2.62H134.3L121.63,35.55H129l1.8-4.95h0l2.62-7.29h0l2.93-8.11c.16-.48.36-1.1.62-1.85s.51-1.54.77-2.35.46-1.53.62-2.14h.29c.16.48.33,1,.5,1.61s.36,1.19.56,1.8.37,1.16.55,1.66.33.92.45,1.27l2.93,8.11h0l2.62,7.29h0Z"/><path class="cls-1" d="M157.49,35.55V2.62h18a12.73,12.73,0,0,1,6.08,1.3,8.43,8.43,0,0,1,3.62,3.62,11.52,11.52,0,0,1,1.2,5.35A11.09,11.09,0,0,1,185,18.58a9.25,9.25,0,0,1-4.18,3.77l6.72,13.2h-7.92l-5.8-12h-9.17v12Zm7.15-17.66h9.93a4.31,4.31,0,0,0,3.36-1.32,5.13,5.13,0,0,0,1.2-3.58,5.39,5.39,0,0,0-.52-2.47A3.57,3.57,0,0,0,177.07,9a5.35,5.35,0,0,0-2.5-.53h-9.93Z"/><path class="cls-1" d="M190.08,35.55V2.62h6.57L209.9,20.38c.19.23.43.54.72.94s.56.79.82,1.17a7.34,7.34,0,0,1,.53.92h.24V2.62H219V35.55H212.4L198.86,17.36c-.32-.45-.65-.95-1-1.49s-.6-1-.76-1.25h-.24V35.55Z"/><path class="cls-2" d="M62.34,3.26,60.42,6a18.7,18.7,0,0,1,2.63,3.54L65.6,0,56.08,2.55a19,19,0,0,1,3.54,2.63ZM56.22,14.44,51.16,9.38l4.93-4.93A17,17,0,0,0,32.54,28l4.93-4.93,5.06,5.06L37.6,33.06A17,17,0,0,0,61.15,9.51Zm-5,8.69a6.19,6.19,0,1,1,0-8.75A6.18,6.18,0,0,1,51.22,23.13Z"/></g></svg>